<mxfile host="app.diagrams.net" modified="2021-03-12T08:58:26.118Z" agent="5.0 (Macintosh; Intel Mac OS X 11_2_3) AppleWebKit/537.36 (KHTML, like Gecko) Chrome/88.0.4324.192 Safari/537.36" etag="MHhvxnmgCpKrpU8gm3u9" version="14.4.7" type="github">
  <diagram id="4Ju_CABuPUIWSEjYzrBO" name="Page-1">
    <mxGraphModel dx="2128" dy="971" grid="1" gridSize="10" guides="1" tooltips="1" connect="1" arrows="1" fold="1" page="1" pageScale="1" pageWidth="827" pageHeight="1169" math="0" shadow="0">
      <root>
        <mxCell id="0" />
        <mxCell id="1" parent="0" />
        <mxCell id="O32i_MgARscnzORiwziN-19" value="" style="shape=ext;rounded=1;html=1;whiteSpace=wrap;dashed=1;dashPattern=1 4;" vertex="1" parent="1">
          <mxGeometry x="210" y="280" width="430" height="390" as="geometry" />
        </mxCell>
        <mxCell id="O32i_MgARscnzORiwziN-1" value="变更" style="rounded=0;whiteSpace=wrap;html=1;" vertex="1" parent="1">
          <mxGeometry x="520" y="90" width="120" height="60" as="geometry" />
        </mxCell>
        <mxCell id="O32i_MgARscnzORiwziN-2" value="DRC" style="rounded=0;whiteSpace=wrap;html=1;" vertex="1" parent="1">
          <mxGeometry x="20" y="610" width="120" height="60" as="geometry" />
        </mxCell>
        <mxCell id="O32i_MgARscnzORiwziN-3" value="ODPS" style="rounded=0;whiteSpace=wrap;html=1;" vertex="1" parent="1">
          <mxGeometry x="20" y="680" width="120" height="60" as="geometry" />
        </mxCell>
        <mxCell id="O32i_MgARscnzORiwziN-4" value="接口" style="rounded=0;whiteSpace=wrap;html=1;" vertex="1" parent="1">
          <mxGeometry x="20" y="750" width="120" height="60" as="geometry" />
        </mxCell>
        <mxCell id="O32i_MgARscnzORiwziN-5" value="METAQ" style="rounded=0;whiteSpace=wrap;html=1;" vertex="1" parent="1">
          <mxGeometry x="20" y="820" width="120" height="60" as="geometry" />
        </mxCell>
        <mxCell id="O32i_MgARscnzORiwziN-6" value="REST" style="rounded=0;whiteSpace=wrap;html=1;" vertex="1" parent="1">
          <mxGeometry x="20" y="890" width="120" height="60" as="geometry" />
        </mxCell>
        <mxCell id="O32i_MgARscnzORiwziN-63" style="edgeStyle=none;rounded=0;orthogonalLoop=1;jettySize=auto;html=1;exitX=0.5;exitY=0;exitDx=0;exitDy=0;entryX=0.5;entryY=1;entryDx=0;entryDy=0;" edge="1" parent="1" source="O32i_MgARscnzORiwziN-7" target="O32i_MgARscnzORiwziN-18">
          <mxGeometry relative="1" as="geometry" />
        </mxCell>
        <mxCell id="O32i_MgARscnzORiwziN-7" value="模型定义" style="rounded=0;whiteSpace=wrap;html=1;" vertex="1" parent="1">
          <mxGeometry x="380" y="750" width="120" height="60" as="geometry" />
        </mxCell>
        <mxCell id="O32i_MgARscnzORiwziN-49" style="rounded=0;orthogonalLoop=1;jettySize=auto;html=1;exitX=0.5;exitY=1;exitDx=0;exitDy=0;" edge="1" parent="1" source="O32i_MgARscnzORiwziN-8" target="O32i_MgARscnzORiwziN-16">
          <mxGeometry relative="1" as="geometry" />
        </mxCell>
        <mxCell id="O32i_MgARscnzORiwziN-8" value="大禹" style="rounded=0;whiteSpace=wrap;html=1;" vertex="1" parent="1">
          <mxGeometry x="240" y="290" width="120" height="60" as="geometry" />
        </mxCell>
        <mxCell id="O32i_MgARscnzORiwziN-52" style="rounded=0;orthogonalLoop=1;jettySize=auto;html=1;exitX=0.5;exitY=1;exitDx=0;exitDy=0;entryX=0.5;entryY=0;entryDx=0;entryDy=0;" edge="1" parent="1" source="O32i_MgARscnzORiwziN-9" target="O32i_MgARscnzORiwziN-16">
          <mxGeometry relative="1" as="geometry" />
        </mxCell>
        <mxCell id="O32i_MgARscnzORiwziN-9" value="Trace" style="rounded=0;whiteSpace=wrap;html=1;" vertex="1" parent="1">
          <mxGeometry x="370" y="290" width="120" height="60" as="geometry" />
        </mxCell>
        <mxCell id="O32i_MgARscnzORiwziN-10" value="资金核对" style="rounded=0;whiteSpace=wrap;html=1;" vertex="1" parent="1">
          <mxGeometry x="510" y="330" width="120" height="60" as="geometry" />
        </mxCell>
        <mxCell id="O32i_MgARscnzORiwziN-11" value="单笔全风险" style="rounded=0;whiteSpace=wrap;html=1;" vertex="1" parent="1">
          <mxGeometry x="460" y="400" width="120" height="60" as="geometry" />
        </mxCell>
        <mxCell id="O32i_MgARscnzORiwziN-59" style="rounded=0;orthogonalLoop=1;jettySize=auto;html=1;exitX=0.5;exitY=1;exitDx=0;exitDy=0;entryX=0;entryY=0;entryDx=0;entryDy=0;" edge="1" parent="1" source="O32i_MgARscnzORiwziN-12" target="O32i_MgARscnzORiwziN-15">
          <mxGeometry relative="1" as="geometry" />
        </mxCell>
        <mxCell id="O32i_MgARscnzORiwziN-12" value="OMC" style="rounded=0;whiteSpace=wrap;html=1;" vertex="1" parent="1">
          <mxGeometry x="220" y="500" width="120" height="60" as="geometry" />
        </mxCell>
        <mxCell id="O32i_MgARscnzORiwziN-60" style="rounded=0;orthogonalLoop=1;jettySize=auto;html=1;exitX=0.5;exitY=1;exitDx=0;exitDy=0;entryX=1;entryY=0;entryDx=0;entryDy=0;" edge="1" parent="1" source="O32i_MgARscnzORiwziN-13" target="O32i_MgARscnzORiwziN-15">
          <mxGeometry relative="1" as="geometry" />
        </mxCell>
        <mxCell id="O32i_MgARscnzORiwziN-13" value="Cache" style="rounded=0;whiteSpace=wrap;html=1;" vertex="1" parent="1">
          <mxGeometry x="360" y="500" width="120" height="60" as="geometry" />
        </mxCell>
        <mxCell id="O32i_MgARscnzORiwziN-61" style="rounded=0;orthogonalLoop=1;jettySize=auto;html=1;exitX=0.5;exitY=1;exitDx=0;exitDy=0;entryX=1;entryY=0.5;entryDx=0;entryDy=0;" edge="1" parent="1" source="O32i_MgARscnzORiwziN-14" target="O32i_MgARscnzORiwziN-15">
          <mxGeometry relative="1" as="geometry" />
        </mxCell>
        <mxCell id="O32i_MgARscnzORiwziN-14" value="AntQ" style="rounded=0;whiteSpace=wrap;html=1;" vertex="1" parent="1">
          <mxGeometry x="490" y="500" width="120" height="60" as="geometry" />
        </mxCell>
        <mxCell id="O32i_MgARscnzORiwziN-15" value="Infra" style="rounded=0;whiteSpace=wrap;html=1;" vertex="1" parent="1">
          <mxGeometry x="290" y="600" width="120" height="60" as="geometry" />
        </mxCell>
        <mxCell id="O32i_MgARscnzORiwziN-53" style="rounded=0;orthogonalLoop=1;jettySize=auto;html=1;exitX=0.75;exitY=0;exitDx=0;exitDy=0;" edge="1" parent="1" source="O32i_MgARscnzORiwziN-16" target="O32i_MgARscnzORiwziN-10">
          <mxGeometry relative="1" as="geometry" />
        </mxCell>
        <mxCell id="O32i_MgARscnzORiwziN-54" style="rounded=0;orthogonalLoop=1;jettySize=auto;html=1;exitX=1;exitY=0.5;exitDx=0;exitDy=0;entryX=0;entryY=0.5;entryDx=0;entryDy=0;" edge="1" parent="1" source="O32i_MgARscnzORiwziN-16" target="O32i_MgARscnzORiwziN-11">
          <mxGeometry relative="1" as="geometry" />
        </mxCell>
        <mxCell id="O32i_MgARscnzORiwziN-55" style="rounded=0;orthogonalLoop=1;jettySize=auto;html=1;exitX=0.25;exitY=1;exitDx=0;exitDy=0;entryX=0.5;entryY=0;entryDx=0;entryDy=0;" edge="1" parent="1" source="O32i_MgARscnzORiwziN-16" target="O32i_MgARscnzORiwziN-12">
          <mxGeometry relative="1" as="geometry" />
        </mxCell>
        <mxCell id="O32i_MgARscnzORiwziN-56" style="rounded=0;orthogonalLoop=1;jettySize=auto;html=1;exitX=0.5;exitY=1;exitDx=0;exitDy=0;entryX=0.5;entryY=0;entryDx=0;entryDy=0;" edge="1" parent="1" source="O32i_MgARscnzORiwziN-16" target="O32i_MgARscnzORiwziN-13">
          <mxGeometry relative="1" as="geometry" />
        </mxCell>
        <mxCell id="O32i_MgARscnzORiwziN-57" style="rounded=0;orthogonalLoop=1;jettySize=auto;html=1;exitX=0.75;exitY=1;exitDx=0;exitDy=0;entryX=0.5;entryY=0;entryDx=0;entryDy=0;" edge="1" parent="1" source="O32i_MgARscnzORiwziN-16" target="O32i_MgARscnzORiwziN-14">
          <mxGeometry relative="1" as="geometry" />
        </mxCell>
        <mxCell id="O32i_MgARscnzORiwziN-58" style="rounded=0;orthogonalLoop=1;jettySize=auto;html=1;exitX=0.5;exitY=1;exitDx=0;exitDy=0;entryX=0.5;entryY=0;entryDx=0;entryDy=0;" edge="1" parent="1" source="O32i_MgARscnzORiwziN-16" target="O32i_MgARscnzORiwziN-15">
          <mxGeometry relative="1" as="geometry" />
        </mxCell>
        <mxCell id="O32i_MgARscnzORiwziN-16" value="部署单元" style="rounded=1;whiteSpace=wrap;html=1;" vertex="1" parent="1">
          <mxGeometry x="290" y="385" width="120" height="60" as="geometry" />
        </mxCell>
        <mxCell id="O32i_MgARscnzORiwziN-62" style="edgeStyle=none;rounded=0;orthogonalLoop=1;jettySize=auto;html=1;exitX=1;exitY=0.5;exitDx=0;exitDy=0;" edge="1" parent="1" source="O32i_MgARscnzORiwziN-17" target="O32i_MgARscnzORiwziN-7">
          <mxGeometry relative="1" as="geometry" />
        </mxCell>
        <mxCell id="O32i_MgARscnzORiwziN-17" value="数据组织" style="rounded=0;whiteSpace=wrap;html=1;" vertex="1" parent="1">
          <mxGeometry x="220" y="750" width="120" height="60" as="geometry" />
        </mxCell>
        <mxCell id="O32i_MgARscnzORiwziN-64" style="edgeStyle=none;rounded=0;orthogonalLoop=1;jettySize=auto;html=1;exitX=1;exitY=0.5;exitDx=0;exitDy=0;entryX=0;entryY=0.5;entryDx=0;entryDy=0;" edge="1" parent="1" source="O32i_MgARscnzORiwziN-18" target="O32i_MgARscnzORiwziN-20">
          <mxGeometry relative="1" as="geometry" />
        </mxCell>
        <mxCell id="O32i_MgARscnzORiwziN-18" value="拓扑串联" style="rounded=0;whiteSpace=wrap;html=1;" vertex="1" parent="1">
          <mxGeometry x="380" y="680" width="120" height="60" as="geometry" />
        </mxCell>
        <mxCell id="O32i_MgARscnzORiwziN-20" value="数据服务" style="rounded=0;whiteSpace=wrap;html=1;" vertex="1" parent="1">
          <mxGeometry x="530" y="680" width="120" height="60" as="geometry" />
        </mxCell>
        <mxCell id="O32i_MgARscnzORiwziN-21" value="数据同步&lt;br&gt;（changelog+list）" style="rounded=0;whiteSpace=wrap;html=1;" vertex="1" parent="1">
          <mxGeometry x="700" y="540" width="120" height="60" as="geometry" />
        </mxCell>
        <mxCell id="O32i_MgARscnzORiwziN-22" value="查询&lt;br&gt;(list/page)" style="rounded=0;whiteSpace=wrap;html=1;" vertex="1" parent="1">
          <mxGeometry x="700" y="610" width="120" height="60" as="geometry" />
        </mxCell>
        <mxCell id="O32i_MgARscnzORiwziN-23" value="聚合计算&lt;br&gt;(count)" style="rounded=0;whiteSpace=wrap;html=1;" vertex="1" parent="1">
          <mxGeometry x="700" y="680" width="120" height="60" as="geometry" />
        </mxCell>
        <mxCell id="O32i_MgARscnzORiwziN-24" value="离线统计" style="rounded=0;whiteSpace=wrap;html=1;" vertex="1" parent="1">
          <mxGeometry x="700" y="820" width="120" height="60" as="geometry" />
        </mxCell>
        <mxCell id="O32i_MgARscnzORiwziN-25" value="拓扑分析&lt;br&gt;(traversal)" style="rounded=0;whiteSpace=wrap;html=1;" vertex="1" parent="1">
          <mxGeometry x="700" y="750" width="120" height="60" as="geometry" />
        </mxCell>
        <mxCell id="O32i_MgARscnzORiwziN-26" value="" style="strokeWidth=2;html=1;shape=mxgraph.flowchart.annotation_2;align=left;labelPosition=right;pointerEvents=1;rotation=-180;" vertex="1" parent="1">
          <mxGeometry x="140" y="620" width="80" height="320" as="geometry" />
        </mxCell>
        <mxCell id="O32i_MgARscnzORiwziN-27" value="" style="endArrow=none;dashed=1;html=1;" edge="1" parent="1">
          <mxGeometry width="50" height="50" relative="1" as="geometry">
            <mxPoint x="840" y="950" as="sourcePoint" />
            <mxPoint x="840" y="190" as="targetPoint" />
          </mxGeometry>
        </mxCell>
        <mxCell id="O32i_MgARscnzORiwziN-28" value="应急" style="rounded=0;whiteSpace=wrap;html=1;" vertex="1" parent="1">
          <mxGeometry x="690" y="90" width="120" height="60" as="geometry" />
        </mxCell>
        <mxCell id="O32i_MgARscnzORiwziN-29" value="容量" style="rounded=0;whiteSpace=wrap;html=1;" vertex="1" parent="1">
          <mxGeometry x="870" y="90" width="120" height="60" as="geometry" />
        </mxCell>
        <mxCell id="O32i_MgARscnzORiwziN-30" value="性能" style="rounded=0;whiteSpace=wrap;html=1;" vertex="1" parent="1">
          <mxGeometry x="1040" y="90" width="120" height="60" as="geometry" />
        </mxCell>
        <mxCell id="O32i_MgARscnzORiwziN-44" style="rounded=0;orthogonalLoop=1;jettySize=auto;html=1;exitX=1;exitY=0.5;exitDx=0;exitDy=0;entryX=0.5;entryY=0;entryDx=0;entryDy=0;" edge="1" parent="1" source="O32i_MgARscnzORiwziN-31" target="O32i_MgARscnzORiwziN-32">
          <mxGeometry relative="1" as="geometry" />
        </mxCell>
        <mxCell id="O32i_MgARscnzORiwziN-31" value="业务结果汇总展示" style="rounded=0;whiteSpace=wrap;html=1;" vertex="1" parent="1">
          <mxGeometry x="1069" y="270" width="120" height="60" as="geometry" />
        </mxCell>
        <mxCell id="O32i_MgARscnzORiwziN-45" style="rounded=0;orthogonalLoop=1;jettySize=auto;html=1;exitX=0.5;exitY=1;exitDx=0;exitDy=0;entryX=1;entryY=0.5;entryDx=0;entryDy=0;" edge="1" parent="1" source="O32i_MgARscnzORiwziN-32" target="O32i_MgARscnzORiwziN-33">
          <mxGeometry relative="1" as="geometry" />
        </mxCell>
        <mxCell id="O32i_MgARscnzORiwziN-32" value="效果评估/打标" style="rounded=0;whiteSpace=wrap;html=1;" vertex="1" parent="1">
          <mxGeometry x="1249" y="360" width="120" height="60" as="geometry" />
        </mxCell>
        <mxCell id="O32i_MgARscnzORiwziN-46" style="rounded=0;orthogonalLoop=1;jettySize=auto;html=1;exitX=0;exitY=0.5;exitDx=0;exitDy=0;" edge="1" parent="1" source="O32i_MgARscnzORiwziN-33" target="O32i_MgARscnzORiwziN-34">
          <mxGeometry relative="1" as="geometry" />
        </mxCell>
        <mxCell id="O32i_MgARscnzORiwziN-33" value="离/在线数据分析" style="rounded=0;whiteSpace=wrap;html=1;" vertex="1" parent="1">
          <mxGeometry x="1069" y="460" width="120" height="60" as="geometry" />
        </mxCell>
        <mxCell id="O32i_MgARscnzORiwziN-47" style="rounded=0;orthogonalLoop=1;jettySize=auto;html=1;exitX=0.5;exitY=0;exitDx=0;exitDy=0;entryX=0.5;entryY=1;entryDx=0;entryDy=0;" edge="1" parent="1" source="O32i_MgARscnzORiwziN-34" target="O32i_MgARscnzORiwziN-36">
          <mxGeometry relative="1" as="geometry" />
        </mxCell>
        <mxCell id="O32i_MgARscnzORiwziN-34" value="规则更新" style="rounded=0;whiteSpace=wrap;html=1;" vertex="1" parent="1">
          <mxGeometry x="870" y="435" width="120" height="60" as="geometry" />
        </mxCell>
        <mxCell id="O32i_MgARscnzORiwziN-38" value="" style="edgeStyle=orthogonalEdgeStyle;rounded=0;orthogonalLoop=1;jettySize=auto;html=1;" edge="1" parent="1" source="O32i_MgARscnzORiwziN-35" target="O32i_MgARscnzORiwziN-37">
          <mxGeometry relative="1" as="geometry" />
        </mxCell>
        <mxCell id="O32i_MgARscnzORiwziN-35" value="数据拉取规则" style="rounded=0;whiteSpace=wrap;html=1;" vertex="1" parent="1">
          <mxGeometry x="870" y="580" width="120" height="60" as="geometry" />
        </mxCell>
        <mxCell id="O32i_MgARscnzORiwziN-48" style="rounded=0;orthogonalLoop=1;jettySize=auto;html=1;exitX=0.5;exitY=0;exitDx=0;exitDy=0;" edge="1" parent="1" source="O32i_MgARscnzORiwziN-36" target="O32i_MgARscnzORiwziN-31">
          <mxGeometry relative="1" as="geometry" />
        </mxCell>
        <mxCell id="O32i_MgARscnzORiwziN-36" value="&lt;span&gt;离/在线业务规则验证&lt;/span&gt;" style="rounded=0;whiteSpace=wrap;html=1;" vertex="1" parent="1">
          <mxGeometry x="870" y="330" width="120" height="60" as="geometry" />
        </mxCell>
        <mxCell id="O32i_MgARscnzORiwziN-40" value="" style="edgeStyle=orthogonalEdgeStyle;rounded=0;orthogonalLoop=1;jettySize=auto;html=1;" edge="1" parent="1" source="O32i_MgARscnzORiwziN-37" target="O32i_MgARscnzORiwziN-39">
          <mxGeometry relative="1" as="geometry" />
        </mxCell>
        <mxCell id="O32i_MgARscnzORiwziN-37" value="模型组装策略" style="rounded=0;whiteSpace=wrap;html=1;" vertex="1" parent="1">
          <mxGeometry x="1030" y="580" width="120" height="60" as="geometry" />
        </mxCell>
        <mxCell id="O32i_MgARscnzORiwziN-42" value="" style="edgeStyle=orthogonalEdgeStyle;rounded=0;orthogonalLoop=1;jettySize=auto;html=1;" edge="1" parent="1" source="O32i_MgARscnzORiwziN-39" target="O32i_MgARscnzORiwziN-41">
          <mxGeometry relative="1" as="geometry" />
        </mxCell>
        <mxCell id="O32i_MgARscnzORiwziN-39" value="影响面分析策略" style="rounded=0;whiteSpace=wrap;html=1;" vertex="1" parent="1">
          <mxGeometry x="1181" y="580" width="120" height="60" as="geometry" />
        </mxCell>
        <mxCell id="O32i_MgARscnzORiwziN-41" value="结论决策策略" style="rounded=0;whiteSpace=wrap;html=1;" vertex="1" parent="1">
          <mxGeometry x="1330" y="580" width="120" height="60" as="geometry" />
        </mxCell>
        <mxCell id="O32i_MgARscnzORiwziN-65" value="" style="strokeWidth=2;html=1;shape=mxgraph.flowchart.annotation_2;align=left;labelPosition=right;pointerEvents=1;" vertex="1" parent="1">
          <mxGeometry x="650" y="550" width="50" height="310" as="geometry" />
        </mxCell>
      </root>
    </mxGraphModel>
  </diagram>
</mxfile>
